<?xml version="1.0" encoding="utf-8"?>
<!-- Generator: Adobe Illustrator 24.1.1, SVG Export Plug-In . SVG Version: 6.00 Build 0)  -->
<svg version="1.1" id="Layer_1" xmlns="http://www.w3.org/2000/svg" xmlns:xlink="http://www.w3.org/1999/xlink" x="0px" y="0px"
	 viewBox="0 0 512 512" style="enable-background:new 0 0 512 512;" xml:space="preserve">
<g>
	<path d="M256,479.6l-9-7.5C52.7,314,0,258.3,0,167.9C0,92.6,60.2,32.4,135.5,32.4c61.7,0,96.4,34.6,120.5,61.7
		c24.1-27.1,58.7-61.7,120.5-61.7c75.3,0,135.5,60.2,135.5,135.5c0,90.4-52.7,146.1-247,304.2L256,479.6z M135.5,62.5
		c-58.7,0-105.4,46.7-105.4,105.4c0,76.8,48.2,128,225.9,272.6c177.7-144.6,225.9-195.8,225.9-272.6c0-58.7-46.7-105.4-105.4-105.4
		c-52.7,0-81.3,31.6-103.9,57.2L256,139.3l-16.6-19.6C216.8,94.1,188.2,62.5,135.5,62.5z"/>
</g>
</svg>
